<?xml version="1.0" encoding="UTF-8"?>
<svg id="Layer_1" data-name="Layer 1" xmlns="http://www.w3.org/2000/svg" viewBox="0 0 700 151.76">
  <defs>
    <style>
      .cls-1 {
        fill: #fff;
      }
    </style>
  </defs>
  <g>
    <path class="cls-1" d="M525,151.26c-51.59,0-95.63-18.63-123.5-34.27-31.64-17.75-51-36.7-51-41.11,0-5.22,20.34-24.44,51-41.51C429.25,18.92,473.2.5,525,.5s95.69,18.53,123.5,34.07c33,18.44,51,36.96,51,41.31,0,3.25-19.79,22.27-51,40.11-28.15,16.09-72.42,35.27-123.5,35.27Z"/>
    <path d="M525,1c51.59,0,95.5,18.49,123.26,34,31.48,17.59,50.74,36.46,50.74,40.87-.09,2.71-18.27,21.14-50.89,39.76-28.07,16.02-72.21,35.12-123.11,35.12s-95.44-18.6-123.25-34.2c-33.48-18.78-50.75-37.02-50.75-40.67,0-4.35,17.91-22.79,50.74-41.07,27.7-15.42,71.56-33.8,123.26-33.8M525,0c-96.65,0-175,65.19-175,75.88,0,9.62,78.35,75.88,175,75.88s175-68.93,175-75.88c0-10.15-78.35-75.88-175-75.88h0Z"/>
  </g>
  <g>
    <path class="cls-1" d="M175,151.26c-51.59,0-95.63-18.63-123.5-34.27C19.86,99.24.5,80.28.5,75.88c0-5.22,20.34-24.44,51-41.51C79.25,18.92,123.2.5,175,.5s95.69,18.53,123.5,34.07c33,18.44,51,36.96,51,41.31,0,3.25-19.79,22.27-51,40.11-28.15,16.09-72.42,35.27-123.5,35.27Z"/>
    <path d="M175,1c51.59,0,95.5,18.49,123.26,34,31.48,17.59,50.74,36.46,50.74,40.87-.09,2.71-18.27,21.14-50.89,39.76-28.07,16.02-72.21,35.12-123.11,35.12s-95.44-18.6-123.25-34.2C18.27,97.77,1,79.53,1,75.88c0-4.35,17.91-22.79,50.74-41.07C79.44,19.38,123.31,1,175,1M175,0C78.35,0,0,65.19,0,75.88c0,9.62,78.35,75.88,175,75.88s175-68.93,175-75.88c0-10.15-78.35-75.88-175-75.88h0Z"/>
  </g>
</svg>